:SAMPLES-PER-SECOND 30
:FULLY-SPECIFIED
:DEGREES
1063
root  13.9403 40.5771 10.1542 152.916 85.701 156.999
RightUpLeg  2.65637 -12.7056 -12.9342
RightLeg  8.07557 -10.8828 2.32903
RightFoot  -1.38929 -0.324326 3.55086
RightToes  0.000481921 0.542163 -0.142578
Spine  0.567363 -1.35812 -3.17539
Spine1  13.3236 -2.80418 4.84363
HEad  13.4478 0.855895 0.0189281
LeftShoulder1  9.67168 -13.8885 -48.5491
LeftArm  -14.9889 22.2371 -22.6725
LeftForeArm  172.63 -47.3954 -169.144
LeftHand  -0.25398 0.0180481 5.50724
RightShoulder  4.88408 8.11958 36.0365
RightArm  -4.16844 -20.0999 36.38
RightForeArm  154.705 46.2437 168.373
RightHand  -0.696936 -0.219924 -15.612
LeftUpLeg  2.85012 7.42069 8.5606
LeftLeg  1.1176 11.0057 -3.23493
LeftFoot  3.79325 0.761791 -5.90033
LeftToes  1.06245e-005 4.65869e-005 -8.65517e-006
1064
root  13.9234 40.5756 10.1648 153.023 85.598 157.202
RightUpLeg  2.73107 -12.7403 -12.9798
RightLeg  8.14036 -10.923 2.31484
RightFoot  -1.42557 -0.323283 3.54628
RightToes  0.000481921 0.542163 -0.142578
Spine  0.650523 -1.34441 -3.06258
Spine1  13.3572 -2.74501 4.69499
HEad  13.5493 0.773817 0.0305467
LeftShoulder1  9.62723 -13.828 -48.4943
LeftArm  -14.8073 21.9743 -22.7417
LeftForeArm  172.948 -47.5191 -169.12
LeftHand  -0.25398 0.0180481 5.50724
RightShoulder  4.87791 8.10687 36.0295
RightArm  -4.22805 -20.0788 36.616
RightForeArm  155.034 46.3625 168.35
RightHand  -0.677031 -0.297078 -15.3908
LeftUpLeg  2.90651 7.39681 8.54097
LeftLeg  1.10782 10.9253 -3.22113
LeftFoot  3.83578 0.764785 -5.91348
LeftToes  1.06245e-005 4.65869e-005 -8.65517e-006
1065
root  13.9008 40.5741 10.1736 153.497 85.4852 157.741
RightUpLeg  2.76727 -12.7634 -12.9925
RightLeg  8.20487 -11.0075 2.29075
RightFoot  -1.44156 -0.323108 3.55474
RightToes  0.000481921 0.542163 -0.142578
Spine  0.838411 -1.38632 -2.83764
Spine1  13.1746 -2.69547 4.39771
HEad  13.7434 0.710029 0.125187
LeftShoulder1  9.55762 -13.7688 -48.3067
LeftArm  -14.696 21.5731 -22.7521
LeftForeArm  172.871 -47.7746 -169.021
LeftHand  -0.25398 0.0180481 5.50724
RightShoulder  4.86228 8.05359 36.0865
RightArm  -4.32378 -19.7116 36.7219
RightForeArm  154.735 46.5925 168.245
RightHand  -0.667407 -0.444733 -15.602
LeftUpLeg  2.90235 7.3777 8.53304
LeftLeg  1.12565 10.8228 -3.20092
LeftFoot  3.87318 0.767942 -5.92257
LeftToes  1.06245e-005 4.65869e-005 -8.65517e-006
1066
root  13.8756 40.572 10.1832 154.115 85.3711 158.384
RightUpLeg  2.75692 -12.7859 -12.9849
RightLeg  8.26899 -11.1071 2.27171
RightFoot  -1.46661 -0.322562 3.55676
RightToes  0.000481921 0.542163 -0.142578
Spine  0.906818 -1.47155 -2.65536
Spine1  13.0336 -2.6985 4.12581
HEad  13.9116 0.676809 0.175886
LeftShoulder1  9.4755 -13.7436 -47.9578
LeftArm  -14.2864 20.6844 -22.491
LeftForeArm  172.506 -48.3629 -168.777
LeftHand  -0.25398 0.0180481 5.50724
RightShoulder  4.87991 8.05151 36.2425
RightArm  -4.50401 -18.6437 36.4029
RightForeArm  154.627 47.0954 168.047
RightHand  -0.718589 -0.262922 -16.2206
LeftUpLeg  2.83373 7.36604 8.53018
LeftLeg  1.16962 10.7141 -3.18155
LeftFoot  3.90773 0.769437 -5.91395
LeftToes  1.06245e-005 4.65869e-005 -8.65517e-006
1067
root  13.8483 40.5691 10.1937 154.456 85.2744 158.772
RightUpLeg  2.7613 -12.831 -12.998
RightLeg  8.34277 -11.1525 2.2644
RightFoot  -1.51215 -0.32068 3.53712
RightToes  0.000481921 0.542163 -0.142578
Spine  0.709246 -1.54405 -2.58034
Spine1  13.22 -2.73697 3.99521
HEad  14.0208 0.612706 0.125312
LeftShoulder1  9.4561 -13.8412 -47.5852
LeftArm  -13.5223 18.9174 -21.6085
LeftForeArm  172.106 -49.389 -168.354
LeftHand  -0.25398 0.0180481 5.50724
RightShoulder  4.92197 8.12285 36.3428
RightArm  -5.05921 -16.5574 35.6241
RightForeArm  155.921 48.0198 167.774
RightHand  -0.785614 0.0919265 -16.6259
LeftUpLeg  2.79312 7.35523 8.52676
LeftLeg  1.21303 10.6253 -3.16471
LeftFoot  3.94537 0.771054 -5.91065
LeftToes  1.06245e-005 4.65869e-005 -8.65517e-006
1068
root  13.8107 40.5649 10.2041 154.482 85.202 158.917
RightUpLeg  2.79911 -12.9007 -13.0299
RightLeg  8.45419 -11.1322 2.23971
RightFoot  -1.55207 -0.31717 3.491
RightToes  0.000481921 0.542163 -0.142578
Spine  0.416487 -1.5819 -2.51569
Spine1  13.5844 -2.76187 3.9199
HEad  14.1856 0.512916 0.0905407
LeftShoulder1  9.52039 -14.0846 -47.2399
LeftArm  -12.8847 16.1559 -20.0709
LeftForeArm  171.321 -50.9003 -167.684
LeftHand  -0.25398 0.0180481 5.50724
RightShoulder  4.94515 8.21029 36.2278
RightArm  -6.18843 -13.4157 34.4891
RightForeArm  157.595 49.6297 167.233
RightHand  -0.824268 0.318086 -16.7726
LeftUpLeg  2.8284 7.3545 8.52667
LeftLeg  1.24565 10.5486 -3.15727
LeftFoot  3.98847 0.773269 -5.91927
LeftToes  1.06245e-005 4.65869e-005 -8.65517e-006
1069
root  13.7564 40.56 10.2137 154.48 85.166 159.073
RightUpLeg  2.82408 -12.9559 -13.0326
RightLeg  8.58715 -11.0979 2.17933
RightFoot  -1.55224 -0.314337 3.45396
RightToes  0.000481921 0.542163 -0.142578
Spine  0.250627 -1.61686 -2.37222
Spine1  13.7874 -2.75553 3.75369
HEad  14.4775 0.518418 0.17978
LeftShoulder1  9.54595 -14.3329 -46.6952
LeftArm  -12.9585 12.5002 -18.331
LeftForeArm  169.27 -53.083 -166.57
LeftHand  -0.25398 0.0180481 5.50724
RightShoulder  4.93248 8.27906 35.8825
RightArm  -7.71927 -9.41275 33.0665
RightForeArm  156.799 52.3105 165.985
RightHand  -0.891178 0.583715 -17.3346
LeftUpLeg  2.88381 7.37614 8.5531
LeftLeg  1.28648 10.4764 -3.16035
LeftFoot  4.03672 0.774579 -5.91692
LeftToes  1.06245e-005 4.65869e-005 -8.65517e-006
1070
root  13.6914 40.5563 10.2228 154.536 85.1863 159.271
RightUpLeg  2.81885 -12.9568 -12.9882
RightLeg  8.67112 -11.083 2.11746
RightFoot  -1.50558 -0.313851 3.45165
RightToes  0.000481921 0.542163 -0.142578
Spine  0.149865 -1.66059 -2.20653
Spine1  13.8213 -2.73003 3.50978
HEad  14.8554 0.693839 0.338673
LeftShoulder1  9.41481 -14.4397 -45.7512
LeftArm  -13.8816 8.06952 -16.8069
LeftForeArm  165.709 -56.2241 -164.707
LeftHand  -0.25398 0.0180481 5.50724
RightShoulder  4.89197 8.34572 35.3173
RightArm  -9.33843 -4.78517 31.4193
RightForeArm  152.267 56.2579 163.579
RightHand  -1.0674 1.2861 -18.5962
LeftUpLeg  2.91454 7.41258 8.60482
LeftLeg  1.32826 10.4354 -3.16571
LeftFoot  4.10154 0.774732 -5.89329
LeftToes  1.06245e-005 4.65869e-005 -8.65517e-006
1071
root  13.6262 40.5548 10.232 154.446 85.2424 159.3
RightUpLeg  2.81342 -12.9225 -12.9438
RightLeg  8.68817 -11.0723 2.09168
RightFoot  -1.43772 -0.314782 3.46937
RightToes  0.000481921 0.542163 -0.142578
Spine  -0.0661656 -1.67678 -2.11315
Spine1  13.903 -2.68696 3.31694
HEad  15.2862 0.855338 0.48586
LeftShoulder1  9.17803 -14.4447 -44.5418
LeftArm  -15.3628 3.04469 -15.4272
LeftForeArm  161.223 -60.4487 -161.702
LeftHand  -0.25398 0.0180481 5.50724
RightShoulder  4.82155 8.41329 34.5054
RightArm  -10.9315 0.262698 29.5867
RightForeArm  144.808 61.2786 159.549
RightHand  -1.3456 2.39852 -20.1282
LeftUpLeg  2.94551 7.43847 8.64944
LeftLeg  1.33203 10.4443 -3.16918
LeftFoot  4.19602 0.777342 -5.87227
LeftToes  1.06245e-005 4.65869e-005 -8.65517e-006
1072
root  13.5609 40.5539 10.2403 154.123 85.2753 159.095
RightUpLeg  2.81281 -12.9115 -12.9451
RightLeg  8.70882 -11.0448 2.08756
RightFoot  -1.3769 -0.315302 3.47853
RightToes  0.000481921 0.542163 -0.142578
Spine  -0.378976 -1.64979 -2.0673
Spine1  14.063 -2.61889 3.20207
HEad  15.7502 0.812114 0.648267
LeftShoulder1  8.96896 -14.5011 -43.3308
LeftArm  -17.06 -2.24344 -13.8549
LeftForeArm  155.335 -65.6201 -156.734
LeftHand  -0.25398 0.0180481 5.50724
RightShoulder  4.70939 8.44012 33.485
RightArm  -12.4676 5.60483 27.5702
RightForeArm  134.163 67.0318 152.726
RightHand  -1.64284 3.50675 -21.5163
LeftUpLeg  2.99169 7.4357 8.65516
LeftLeg  1.29088 10.4783 -3.17212
LeftFoot  4.31124 0.781384 -5.86704
LeftToes  1.06245e-005 4.65869e-005 -8.65517e-006
1073
root  13.489 40.5516 10.246 153.846 85.2683 158.946
RightUpLeg  2.80331 -12.9398 -12.9709
RightLeg  8.77435 -11.0045 2.07465
RightFoot  -1.32542 -0.314957 3.4718
RightToes  0.000481921 0.542163 -0.142578
Spine  -0.647717 -1.61537 -1.96681
Spine1  14.2132 -2.5377 3.06788
HEad  16.1472 0.609041 0.845557
LeftShoulder1  8.82287 -14.6586 -42.1853
LeftArm  -18.7339 -7.50265 -11.9667
LeftForeArm  145.002 -71.3334 -147.728
LeftHand  -0.25398 0.0180481 5.50724
RightShoulder  4.55073 8.38444 32.3373
RightArm  -13.784 11.2076 25.4848
RightForeArm  117.029 73.045 139.716
RightHand  -1.91182 4.43658 -22.655
LeftUpLeg  3.02458 7.41925 8.6396
LeftLeg  1.26164 10.4964 -3.17154
LeftFoot  4.41574 0.783536 -5.85458
LeftToes  1.06245e-005 4.65869e-005 -8.65517e-006
1074
root  13.4113 40.5478 10.2485 153.848 85.2676 159.1
RightUpLeg  2.81113 -12.9796 -12.9782
RightLeg  8.84244 -10.9507 2.05866
RightFoot  -1.27085 -0.314399 3.45906
RightToes  0.000481921 0.542163 -0.142578
Spine  -0.832253 -1.59576 -1.78169
Spine1  14.3989 -2.45707 2.86122
HEad  16.3768 0.340178 1.00596
LeftShoulder1  8.68366 -14.8332 -41.0423
LeftArm  -20.2306 -12.6531 -9.93226
LeftForeArm  125.107 -76.6381 -129.929
LeftHand  -0.25398 0.0180481 5.50724
RightShoulder  4.35146 8.25079 31.0698
RightArm  -14.7551 16.9633 23.5395
RightForeArm  86.3913 77.835 112.435
RightHand  -2.14456 5.29571 -23.3643
LeftUpLeg  3.04284 7.42971 8.65609
LeftLeg  1.30012 10.4781 -3.16861
LeftFoot  4.48831 0.781765 -5.81354
LeftToes  1.06245e-005 4.65869e-005 -8.65517e-006
1075
root  13.3344 40.5429 10.2492 153.895 85.3013 159.326
RightUpLeg  2.84721 -13.0321 -12.9763
RightLeg  8.89687 -10.862 2.0541
RightFoot  -1.21363 -0.313823 3.44309
RightToes  0.000481921 0.542163 -0.142578
Spine  -0.9425 -1.56451 -1.56603
Spine1  14.6409 -2.35688 2.60937
HEad  16.4734 -0.0441417 1.11467
LeftShoulder1  8.52948 -14.9731 -39.9161
LeftArm  -21.5394 -17.6603 -7.94989
LeftForeArm  90.8655 -79.5501 -96.9343
LeftHand  -0.25398 0.0180481 5.50724
RightShoulder  4.13643 8.09754 29.6863
RightArm  -15.465 22.5616 21.7539
RightForeArm  42.8571 77.992 70.0823
RightHand  -2.33034 6.14879 -23.5225
LeftUpLeg  3.07459 7.48328 8.71251
LeftLeg  1.38831 10.4344 -3.18166
LeftFoot  4.5437 0.778909 -5.7544
LeftToes  1.06245e-005 4.65869e-005 -8.65517e-006
1076
root  13.2595 40.5375 10.2488 153.614 85.3454 159.191
RightUpLeg  2.82747 -13.1197 -12.9932
RightLeg  8.99154 -10.736 2.04218
RightFoot  -1.16097 -0.312903 3.41858
RightToes  0.000481921 0.542163 -0.142578
Spine  -0.946948 -1.49708 -1.3336
Spine1  14.7656 -2.20048 2.30477
HEad  16.5106 -0.558825 1.26565
LeftShoulder1  8.39568 -15.1298 -38.8632
LeftArm  -22.7486 -22.3612 -6.09894
LeftForeArm  55.3009 -78.1488 -60.3699
LeftHand  -0.25398 0.0180481 5.50724
RightShoulder  3.947 8.0069 28.291
RightArm  -16.0084 27.6747 19.9712
RightForeArm  13.5903 72.9157 40.6707
RightHand  -2.50692 7.06457 -23.4619
LeftUpLeg  3.09028 7.54364 8.75059
LeftLeg  1.46172 10.4102 -3.21693
LeftFoot  4.61266 0.776147 -5.6978
LeftToes  1.06245e-005 4.65869e-005 -8.65517e-006
1077
root  13.1854 40.5328 10.2478 153.133 85.383 158.759
RightUpLeg  2.67764 -13.2064 -13.0014
RightLeg  9.1245 -10.6236 2.00365
RightFoot  -1.10302 -0.312269 3.39504
RightToes  0.000481921 0.542163 -0.142578
Spine  -0.88845 -1.40601 -1.02379
Spine1  14.6854 -1.98754 1.9137
HEad  16.4678 -1.06239 1.45679
LeftShoulder1  8.3143 -15.3657 -37.9083
LeftArm  -23.8832 -26.5909 -4.36645
LeftForeArm  35.1948 -73.7329 -38.3622
LeftHand  -0.25398 0.0180481 5.50724
RightShoulder  3.80193 8.01619 26.9638
RightArm  -16.3468 32.2041 18.2399
RightForeArm  -1.58539 65.6499 26.5462
RightHand  -2.72258 8.0617 -23.5997
LeftUpLeg  3.02255 7.5699 8.737
LeftLeg  1.48755 10.4449 -3.25112
LeftFoot  4.70377 0.773732 -5.64723
LeftToes  1.06245e-005 4.65869e-005 -8.65517e-006
